<?xml version="1.0" encoding="utf-8"?>
<!-- Generator: Adobe Illustrator 15.1.0, SVG Export Plug-In . SVG Version: 6.00 Build 0)  -->
<!DOCTYPE svg PUBLIC "-//W3C//DTD SVG 1.1//EN" "http://www.w3.org/Graphics/SVG/1.1/DTD/svg11.dtd" [
	<!ENTITY ns_extend "http://ns.adobe.com/Extensibility/1.0/">
	<!ENTITY ns_ai "http://ns.adobe.com/AdobeIllustrator/10.0/">
	<!ENTITY ns_graphs "http://ns.adobe.com/Graphs/1.0/">
	<!ENTITY ns_vars "http://ns.adobe.com/Variables/1.0/">
	<!ENTITY ns_imrep "http://ns.adobe.com/ImageReplacement/1.0/">
	<!ENTITY ns_sfw "http://ns.adobe.com/SaveForWeb/1.0/">
	<!ENTITY ns_custom "http://ns.adobe.com/GenericCustomNamespace/1.0/">
	<!ENTITY ns_adobe_xpath "http://ns.adobe.com/XPath/1.0/">
]>
<svg version="1.1" id="Layer_1" xmlns:x="&ns_extend;" xmlns:i="&ns_ai;" xmlns:graph="&ns_graphs;"
	 xmlns="http://www.w3.org/2000/svg" xmlns:xlink="http://www.w3.org/1999/xlink" x="0px" y="0px" width="792px" height="280px"
	 viewBox="0 166 792 280" enable-background="new 0 166 792 280" xml:space="preserve">
<metadata>
	<sfw  xmlns="&ns_sfw;">
		<slices></slices>
		<sliceSourceBounds  width="775.71" height="220.5" y="293.363" x="-82.355" bottomLeftOrigin="true"></sliceSourceBounds>
	</sfw>
</metadata>
<g>
	<g>
		<path fill="#4C4C4D" d="M325.289,330.632v76.627H311.91l-30.258-66.437h-0.213v66.437h-8.706v-76.627h13.803l29.834,65.591h0.212
			v-65.591H325.289z"/>
		<path fill="#4C4C4D" d="M354.167,407.259v-76.627h39.499v8.491h-29.73v24.622h27.605v8.491h-27.605v26.531h30.367v8.492
			L354.167,407.259L354.167,407.259z"/>
		<path fill="#4C4C4D" d="M461.403,330.632v8.491h-20.172v68.136h-9.769v-68.136h-20.172v-8.491H461.403z"/>
		<path fill="#4C4C4D" d="M474.675,330.632h10.404l14.44,66.438h0.214l15.393-66.438h12.636l13.908,66.438h0.212l15.608-66.438
			h10.192l-20.278,76.627h-11.891l-14.545-66.437h-0.214l-15.501,66.437H493.36L474.675,330.632z"/>
		<path fill="#4C4C4D" d="M587.859,379.24v-25.154c0-15.282,7.856-25.045,24.101-25.045c16.241,0,24.098,9.763,24.098,25.045v25.154
			c0,21.226-7.856,29.611-24.098,29.611C595.716,408.852,587.859,400.466,587.859,379.24z M626.08,379.666v-25.897
			c0-16.025-11.04-16.557-14.12-16.557c-3.081,0-14.126,0.531-14.126,16.557v25.897c0,16.766,4.886,21.011,14.126,21.011
			C621.196,400.677,626.08,396.432,626.08,379.666z"/>
		<path fill="#4C4C4D" d="M673.751,372.022v35.236h-9.768v-76.627h26.439c13.591,0,18.367,9.553,18.367,19.103
			c0,9.021-4.992,15.92-14.015,17.514v0.211c8.811,1.38,11.995,4.353,12.528,19.741c0.104,3.287,1.166,15.281,2.655,20.059h-10.195
			c-2.759-5.307-2.123-15.282-2.973-25.471c-0.741-9.342-8.279-9.766-11.572-9.766H673.751L673.751,372.022z M673.751,363.532
			h14.654c7.006,0,10.401-6.052,10.401-12.736c0-5.518-2.759-11.674-10.295-11.674h-14.761V363.532L673.751,363.532z"/>
		<path fill="#4C4C4D" d="M734.38,407.259v-76.627h9.766v33.644h0.318l26.756-33.644h11.043l-27.819,34.598l29.412,42.029h-12.529
			l-26.86-40.011h-0.317v40.011H734.38L734.38,407.259z"/>
	</g>
	<g>
		<path fill="#1C6867" d="M308.066,211.045c-9.431-0.661-11.417,2.977-11.417,11.412v10.09h10.921v14.392h-10.921v69.137h-23.331
			v-69.137h-10.424v-14.392h10.589c-0.165-23.983-2.151-36.719,26.309-36.719c2.812,0,5.46,0.165,8.272,0.331L308.066,211.045
			L308.066,211.045z"/>
		<path fill="#1C6867" d="M307.074,273.236c0-22.826,3.31-42.342,34.085-42.342c30.777,0,34.087,19.516,34.087,42.342
			c0,26.134-3.972,44.494-34.087,44.494C311.046,317.73,307.074,299.371,307.074,273.236z M351.917,271.914
			c0-17.368-0.828-26.135-10.756-26.135c-9.928,0-10.756,8.767-10.756,26.135c0,25.472,2.151,30.929,10.756,30.929
			C349.765,302.843,351.917,297.386,351.917,271.914z"/>
		<path fill="#1C6867" d="M423.567,307.641h-0.333c-2.315,3.639-4.964,6.286-8.272,7.774c-3.311,1.653-6.95,2.316-11.418,2.316
			c-11.085,0-20.849-6.616-20.849-18.194v-66.989h23.331v57.893c0,7.442,1.324,12.9,8.771,12.9c7.448,0,8.771-5.458,8.771-12.9
			v-57.893H446.9v66.989c0,5.458,0.33,11.082,0.826,16.539h-24.159V307.641L423.567,307.641z"/>
		<path fill="#1C6867" d="M479.662,240.984h0.332c2.315-3.805,5.127-6.286,8.273-7.774c3.308-1.654,7.115-2.315,11.417-2.315
			c11.085,0,20.851,6.616,20.851,18.194v66.987h-23.333v-57.561c0-7.443-1.325-13.231-8.77-13.231
			c-7.448,0-8.773,5.789-8.773,13.231v57.561h-23.331v-83.529h23.331v8.437H479.662z"/>
		<path fill="#1C6867" d="M571.662,316.076v-9.262h-0.328c-4.303,8.104-10.754,10.917-19.688,10.917
			c-24.16,0-23.331-26.795-23.331-43.998c0-16.871-0.666-42.839,22.833-42.839c8.438,0,14.229,2.481,19.028,9.593h0.331v-43.831
			h23.331v119.419H571.662z M570.507,273.567c0-16.705,0.165-28.284-9.435-28.284c-10.091,0-9.925,11.579-9.925,28.284
			c0,21.007,1.488,29.772,9.925,29.772C569.019,303.34,570.507,294.574,570.507,273.567z"/>
		<path fill="#1C6867" d="M625.117,278.033c0,9.925,0.329,24.81,10.589,24.81c8.272,0,9.927-7.938,9.927-14.885h23.661
			c-0.333,9.097-3.31,16.539-8.935,21.667c-5.461,5.127-13.732,8.105-24.653,8.105c-30.116,0-34.089-18.36-34.089-44.494
			c0-22.826,3.31-42.342,34.089-42.342c31.437,0,34.911,20.344,34.084,47.139H625.117L625.117,278.033z M646.459,264.967
			c0-8.105,0.333-19.683-10.753-19.683c-10.756,0-10.589,12.571-10.589,19.683H646.459z"/>
		<path fill="#1C6867" d="M699.41,232.547V243.3h0.332c4.303-9.594,12.242-12.406,21.678-12.406v20.839
			c-20.52-1.324-20.849,10.587-20.849,18.856v45.486h-23.335v-83.529H699.41z"/>
		<path fill="#1C6867" d="M741.606,289.28c-0.165,3.805,0,7.443,1.157,10.091c1.325,2.647,3.807,3.969,8.439,3.969
			c4.632,0,8.604-2.978,8.604-8.601c0-17.699-41.039-13.729-41.039-40.358c0-18.03,17.873-23.487,32.932-23.487
			c15.882,0,30.28,7.608,28.955,25.636H757.82c0-5.789-0.66-9.263-2.315-10.751c-1.491-1.488-3.476-1.819-5.956-1.819
			c-5.131,0-7.942,3.308-7.942,8.932c0,13.232,41.035,12.571,41.035,39.367c0,14.556-11.912,25.473-31.275,25.473
			c-20.349,0-33.917-5.129-32.599-28.45L741.606,289.28L741.606,289.28z"/>
	</g>
	<g>
		<path fill="#246767" d="M238.83,397.722c0,6.305-5.098,11.415-11.389,11.415H19.537c-6.292,0-11.392-5.11-11.392-11.415V200.053
			c0-6.304,5.099-11.417,11.392-11.417h207.903c6.292,0,11.389,5.113,11.389,11.417L238.83,397.722L238.83,397.722z"/>
		<path fill="#FFFFFF" d="M235.227,404.688l-18.305-35.798v-167.35c0-4.757-4.005-8.612-8.947-8.612H34.14
			c-4.94,0-8.948,3.855-8.948,8.612v167.348c0,4.758,4.007,8.614,8.948,8.614h171.074L235.227,404.688z"/>
		<g>
			<path fill="#4C4C4D" d="M60.216,279.162v-7.227c0-7.525,5.092-8.999,10.256-8.999c1.203,0,1.91,0.073,2.759,0.223v4.35
				c-6.154-0.442-7.215,2.288-7.215,5.313v6.342h7.215v4.575h-7.215v32.677h-5.8v-32.677h-5.518v-4.575h5.518V279.162z"/>
			<path fill="#4C4C4D" d="M98.2,316.414v-25.816c0-3.985-1.344-7.23-6.296-7.23c-6.365,0-7.286,5.902-7.286,10.99v22.056h-5.8
				v-29.506c0-2.582-0.143-5.164-0.354-7.746h6.154v4.797h0.284c2.262-4.205,4.952-5.533,9.549-5.533
				c7.639,0,9.55,4.794,9.55,12.171v25.816H98.2L98.2,316.414z"/>
		</g>
	</g>
</g>
</svg>
