<svg xmlns="http://www.w3.org/2000/svg" xmlns:xlink="http://www.w3.org/1999/xlink" viewBox="-4703 2518 58 58">
  <defs>
    <style>
      .cls-1 {
        fill: #fff;
      }

      .cls-2 {
        fill: #3f61ac;
      }

      .cls-3 {
        filter: url(#Ellipse_112);
      }
    </style>
    <filter id="Ellipse_112" x="-4703" y="2518" width="58" height="58" filterUnits="userSpaceOnUse">
      <feOffset dy="3" input="SourceAlpha"/>
      <feGaussianBlur stdDeviation="3" result="blur"/>
      <feFlood flood-opacity="0.161"/>
      <feComposite operator="in" in2="blur"/>
      <feComposite in="SourceGraphic"/>
    </filter>
  </defs>
  <g id="Group_726" data-name="Group 726" transform="translate(-4694 2524)">
    <g class="cls-3" transform="matrix(1, 0, 0, 1, 4694, -2524)">
      <circle id="Ellipse_112-2" data-name="Ellipse 112" class="cls-1" cx="20" cy="20" r="20" transform="translate(-4694 2524)"/>
    </g>
    <g id="Group_724" data-name="Group 724" transform="translate(7.975 5.793)">
      <g id="Group_723" data-name="Group 723">
        <path id="Path_77" data-name="Path 77" class="cls-2" d="M167.284,143.257a.521.521,0,0,1-.149-.366,6.173,6.173,0,0,1,1.291-3.78,15.361,15.361,0,0,1,3.463-2.032,16.924,16.924,0,0,0,3.337-1.917l1.04-.982-.905-1.108a8.982,8.982,0,0,1-2.235-5.3,8.49,8.49,0,0,1,.592-3.829c.708-1.4,2.119-2.1,4.2-2.1s3.5.708,4.2,2.1a8.49,8.49,0,0,1,.592,3.829,8.9,8.9,0,0,1-2.239,5.293l-.905,1.108,1.04.982a6.293,6.293,0,0,0,1.156.78v-1.772h.063a1.221,1.221,0,0,1-.159-.125,10.413,10.413,0,0,0,2.586-6.265,9.823,9.823,0,0,0-.756-4.522c-.679-1.348-2.2-2.952-5.577-2.952s-4.9,1.608-5.577,2.952a9.713,9.713,0,0,0-.766,4.522,10.4,10.4,0,0,0,2.586,6.265A20.515,20.515,0,0,1,171.2,135.7a15.875,15.875,0,0,0-3.867,2.321,7.581,7.581,0,0,0-1.743,4.845,2.056,2.056,0,0,0,2.056,2.085h14.12v-1.541H167.65A.476.476,0,0,1,167.284,143.257Zm20.65-6.01h-.771v-.771a2.312,2.312,0,0,0-4.623,0v.771h-.771a2.312,2.312,0,0,0,0,4.623h.771v.771a2.312,2.312,0,1,0,4.623,0v-.771h.771a2.312,2.312,0,1,0,0-4.623Zm0,3.082h-2.312v2.312a.771.771,0,1,1-1.541,0v-2.312H181.77a.771.771,0,0,1,0-1.541h2.312v-2.312a.771.771,0,0,1,1.541,0v2.312h2.312a.771.771,0,1,1,0,1.541Z" transform="translate(-165.593 -120.3)"/>
      </g>
    </g>
    <g id="Group_725" data-name="Group 725">
      <path id="Path_78" data-name="Path 78" class="cls-2" d="M20,40a19.925,19.925,0,1,1,7.787-1.57A19.944,19.944,0,0,1,20,40ZM20,1.445A18.562,18.562,0,0,0,12.781,37.1,18.559,18.559,0,0,0,33.128,6.877,18.473,18.473,0,0,0,20,1.445Z"/>
    </g>
  </g>
</svg>