<svg xmlns="http://www.w3.org/2000/svg" xmlns:xlink="http://www.w3.org/1999/xlink" viewBox="-3949 98 58 58">
  <defs>
    <style>
      .cls-1 {
        fill: #fff;
        stroke: #3f61ac;
      }

      .cls-2 {
        fill: #3f61ac;
      }

      .cls-3 {
        stroke: none;
      }

      .cls-4 {
        fill: none;
      }

      .cls-5 {
        filter: url(#Ellipse_4);
      }
    </style>
    <filter id="Ellipse_4" x="-3949" y="98" width="58" height="58" filterUnits="userSpaceOnUse">
      <feOffset dy="3" input="SourceAlpha"/>
      <feGaussianBlur stdDeviation="3" result="blur"/>
      <feFlood flood-opacity="0.161"/>
      <feComposite operator="in" in2="blur"/>
      <feComposite in="SourceGraphic"/>
    </filter>
  </defs>
  <g id="Group_80" data-name="Group 80" transform="translate(-3106 -4844)">
    <g class="cls-5" transform="matrix(1, 0, 0, 1, 3106, 4844)">
      <g id="Ellipse_4-2" data-name="Ellipse 4" class="cls-1" transform="translate(-3940 104)">
        <circle class="cls-3" cx="20" cy="20" r="20"/>
        <circle class="cls-4" cx="20" cy="20" r="19.5"/>
      </g>
    </g>
    <g id="_126488" data-name="126488" transform="translate(-827 4937.75)">
      <g id="Group_79" data-name="Group 79" transform="translate(0 17.25)">
        <path id="Path_11" data-name="Path 11" class="cls-2" d="M25.61,228.262a.752.752,0,0,0-.755.755v6.871a3.39,3.39,0,0,1-3.385,3.385H4.9a3.39,3.39,0,0,1-3.385-3.385v-6.983a.755.755,0,1,0-1.511,0v6.983a4.9,4.9,0,0,0,4.9,4.9H21.47a4.9,4.9,0,0,0,4.9-4.9v-6.871A.756.756,0,0,0,25.61,228.262Z" transform="translate(0 -216.349)"/>
        <path id="Path_12" data-name="Path 12" class="cls-2" d="M141.254,35.687a.76.76,0,0,0,.532.224.737.737,0,0,0,.532-.224l4.8-4.8a.756.756,0,0,0-1.069-1.069l-3.508,3.514V18.005a.755.755,0,0,0-1.511,0V33.331l-3.514-3.514a.756.756,0,0,0-1.069,1.069Z" transform="translate(-128.603 -17.25)"/>
      </g>
    </g>
  </g>
</svg>