<?xml version="1.0" encoding="UTF-8"?>
<!-- Generator: Adobe Illustrator 20.1.0, SVG Export Plug-In . SVG Version: 6.00 Build 0)  -->
<svg version="1.1" id="Layer_1" xmlns="http://www.w3.org/2000/svg" xmlns:xlink="http://www.w3.org/1999/xlink" x="0px" y="0px" viewBox="0 0 33.7 28.3" style="enable-background:new 0 0 33.7 28.3;" xml:space="preserve">
<style type="text/css">
	.st0{fill:#CB9798;}
</style>
<g id="Yyo5FQ.tif">
	<g>
		<path class="st0" d="M0,28.3C0,18.9,0,9.4,0,0c0.1,0,0.3,0,0.4,0C9,0,17.5,0,26.1,0c0.1,0,0.3,0,0.4,0c0,2.2,0,4.3,0,6.6    c0.2-0.3,0.4-0.4,0.6-0.6c1.4,1.2,2.8,2.5,4.2,3.6c-0.1,0.1-0.1,0.1-0.1,0.2c-1.5,1.7-2.9,3.4-4.4,5c-0.2,0.2-0.3,0.4-0.3,0.6    c0,4.1,0,8.2,0,12.3c0,0.1,0,0.3,0,0.5c-0.2,0-0.3,0-0.5,0c-8.5,0-17.1,0-25.6,0C0.3,28.3,0.1,28.3,0,28.3z M17.8,16.4    c-4.3,0-8.7,0-13,0c0-0.6,0-1.1,0-1.7c0.1,0,0.3,0,0.4,0c4.6,0,9.3,0,14,0c0.3,0,0.4-0.1,0.5-0.3c1.5-1.7,3-3.5,4.5-5.2    c0.1-0.1,0.2-0.4,0.2-0.6c0-1.8,0-3.7,0-5.5c0-0.1,0-0.3,0-0.4c-7.4,0-14.9,0-22.3,0c0,7.8,0,15.6,0,23.4c7.4,0,14.9,0,22.3,0    c0-2.9,0-5.7,0-8.7c-0.8,0.9-1.5,1.8-2.3,2.6c-0.1,0-0.1-0.1-0.1-0.1c-1.3-1.2-2.6-2.3-3.9-3.4C17.9,16.7,17.9,16.5,17.8,16.4z"/>
		<path class="st0" d="M31.7,9.1c-1.4-1.2-2.8-2.5-4.2-3.7c0.6-0.7,1.2-1.4,1.8-2.1c0.3-0.3,0.6-0.3,1-0.1c0.2,0.1,0.4,0.3,0.6,0.5    c0.8,0.6,1.5,1.4,2.4,2.1c0.6,0.5,0.6,1,0.1,1.5C32.7,7.9,32.2,8.5,31.7,9.1z"/>
		<path class="st0" d="M4.8,11.6c0-0.6,0-1.1,0-1.7c5.7,0,11.3,0,17,0c0,0.6,0,1.1,0,1.7C16.1,11.6,10.5,11.6,4.8,11.6z"/>
		<path class="st0" d="M21.8,5.7c0,0.6,0,1.1,0,1.7c-5.7,0-11.3,0-17,0c0-0.6,0-1.1,0-1.7C10.5,5.7,16.1,5.7,21.8,5.7z"/>
		<path class="st0" d="M8.3,24.6c-1.5,0-2.6-1.2-2.7-2.7c0-1.5,1.2-2.7,2.7-2.7s2.7,1.3,2.7,2.7C10.9,23.4,9.7,24.6,8.3,24.6z"/>
		<path class="st0" d="M21.6,20.8c-1.4,0.5-2.7,1-4.1,1.5c-0.4,0.1-0.7,0.3-1.1,0.4c-0.3,0.1-0.4-0.1-0.3-0.3    c0.4-1.7,0.8-3.4,1.2-5.2c0,0,0,0,0.1-0.1C18.7,18.3,20.1,19.6,21.6,20.8z"/>
	</g>
</g>
</svg>