<svg xmlns="http://www.w3.org/2000/svg" xmlns:xlink="http://www.w3.org/1999/xlink" viewBox="-3606 331 90 90">
  <defs>
    <style>
      .cls-1 {
        fill: #a7d2d0;
        stroke: #fff;
        stroke-width: 3px;
      }

      .cls-2 {
        fill: #fff;
      }

      .cls-3 {
        stroke: none;
      }

      .cls-4 {
        fill: none;
      }

      .cls-5 {
        filter: url(#Rectangle_71);
      }

      .cls-6 {
        filter: url(#Rectangle_70);
      }

      .cls-7 {
        filter: url(#Rectangle_69);
      }

      .cls-8 {
        filter: url(#Rectangle_68);
      }

      .cls-9 {
        filter: url(#Rectangle_67);
      }

      .cls-10 {
        filter: url(#Rectangle_66);
      }

      .cls-11 {
        filter: url(#Path_32);
      }

      .cls-12 {
        filter: url(#Path_31);
      }

      .cls-13 {
        filter: url(#Path_30);
      }

      .cls-14 {
        filter: url(#Ellipse_40);
      }
    </style>
    <filter id="Ellipse_40" x="-3606" y="331" width="90" height="90" filterUnits="userSpaceOnUse">
      <feOffset dy="3" input="SourceAlpha"/>
      <feGaussianBlur stdDeviation="3" result="blur"/>
      <feFlood flood-opacity="0.161"/>
      <feComposite operator="in" in2="blur"/>
      <feComposite in="SourceGraphic"/>
    </filter>
    <filter id="Path_30" x="-3583.843" y="346.529" width="20.928" height="27.03" filterUnits="userSpaceOnUse">
      <feOffset dy="3" input="SourceAlpha"/>
      <feGaussianBlur stdDeviation="3" result="blur-2"/>
      <feFlood flood-opacity="0.161"/>
      <feComposite operator="in" in2="blur-2"/>
      <feComposite in="SourceGraphic"/>
    </filter>
    <filter id="Path_31" x="-3559.783" y="346.529" width="20.928" height="27.03" filterUnits="userSpaceOnUse">
      <feOffset dy="3" input="SourceAlpha"/>
      <feGaussianBlur stdDeviation="3" result="blur-3"/>
      <feFlood flood-opacity="0.161"/>
      <feComposite operator="in" in2="blur-3"/>
      <feComposite in="SourceGraphic"/>
    </filter>
    <filter id="Path_32" x="-3590.011" y="352.508" width="57.222" height="51.163" filterUnits="userSpaceOnUse">
      <feOffset dy="3" input="SourceAlpha"/>
      <feGaussianBlur stdDeviation="3" result="blur-4"/>
      <feFlood flood-opacity="0.161"/>
      <feComposite operator="in" in2="blur-4"/>
      <feComposite in="SourceGraphic"/>
    </filter>
    <filter id="Rectangle_66" x="-3584.728" y="363.263" width="25.849" height="25.849" filterUnits="userSpaceOnUse">
      <feOffset dy="3" input="SourceAlpha"/>
      <feGaussianBlur stdDeviation="3" result="blur-5"/>
      <feFlood flood-opacity="0.161"/>
      <feComposite operator="in" in2="blur-5"/>
      <feComposite in="SourceGraphic"/>
    </filter>
    <filter id="Rectangle_67" x="-3574.219" y="363.263" width="25.849" height="25.849" filterUnits="userSpaceOnUse">
      <feOffset dy="3" input="SourceAlpha"/>
      <feGaussianBlur stdDeviation="3" result="blur-6"/>
      <feFlood flood-opacity="0.161"/>
      <feComposite operator="in" in2="blur-6"/>
      <feComposite in="SourceGraphic"/>
    </filter>
    <filter id="Rectangle_68" x="-3563.704" y="363.263" width="25.849" height="25.849" filterUnits="userSpaceOnUse">
      <feOffset dy="3" input="SourceAlpha"/>
      <feGaussianBlur stdDeviation="3" result="blur-7"/>
      <feFlood flood-opacity="0.161"/>
      <feComposite operator="in" in2="blur-7"/>
      <feComposite in="SourceGraphic"/>
    </filter>
    <filter id="Rectangle_69" x="-3584.728" y="372.924" width="25.849" height="25.849" filterUnits="userSpaceOnUse">
      <feOffset dy="3" input="SourceAlpha"/>
      <feGaussianBlur stdDeviation="3" result="blur-8"/>
      <feFlood flood-opacity="0.161"/>
      <feComposite operator="in" in2="blur-8"/>
      <feComposite in="SourceGraphic"/>
    </filter>
    <filter id="Rectangle_70" x="-3574.219" y="372.924" width="25.849" height="25.849" filterUnits="userSpaceOnUse">
      <feOffset dy="3" input="SourceAlpha"/>
      <feGaussianBlur stdDeviation="3" result="blur-9"/>
      <feFlood flood-opacity="0.161"/>
      <feComposite operator="in" in2="blur-9"/>
      <feComposite in="SourceGraphic"/>
    </filter>
    <filter id="Rectangle_71" x="-3563.704" y="372.924" width="25.849" height="25.849" filterUnits="userSpaceOnUse">
      <feOffset dy="3" input="SourceAlpha"/>
      <feGaussianBlur stdDeviation="3" result="blur-10"/>
      <feFlood flood-opacity="0.161"/>
      <feComposite operator="in" in2="blur-10"/>
      <feComposite in="SourceGraphic"/>
    </filter>
  </defs>
  <g id="Group_51" data-name="Group 51" transform="translate(-4389 3)">
    <g class="cls-14" transform="matrix(1, 0, 0, 1, 4389, -3)">
      <g id="Ellipse_40-2" data-name="Ellipse 40" class="cls-1" transform="translate(-3597 337)">
        <circle class="cls-3" cx="36" cy="36" r="36"/>
        <circle class="cls-4" cx="36" cy="36" r="34.5"/>
      </g>
    </g>
    <g id="Group_50" data-name="Group 50" transform="translate(807.989 349.529)">
      <g class="cls-13" transform="matrix(1, 0, 0, 1, 3581.01, -352.53)">
        <path id="Path_30-2" data-name="Path 30" class="cls-2" d="M86.564,9.03h0A1.469,1.469,0,0,1,85.1,7.566v-6.1A1.469,1.469,0,0,1,86.564,0h0a1.469,1.469,0,0,1,1.464,1.464v6.1A1.469,1.469,0,0,1,86.564,9.03Z" transform="translate(-3659.94 352.53)"/>
      </g>
      <g class="cls-12" transform="matrix(1, 0, 0, 1, 3581.01, -352.53)">
        <path id="Path_31-2" data-name="Path 31" class="cls-2" d="M418.564,9.03h0A1.469,1.469,0,0,1,417.1,7.566v-6.1A1.469,1.469,0,0,1,418.564,0h0a1.469,1.469,0,0,1,1.464,1.464v6.1A1.469,1.469,0,0,1,418.564,9.03Z" transform="translate(-3967.88 352.53)"/>
      </g>
      <g class="cls-11" transform="matrix(1, 0, 0, 1, 3581.01, -352.53)">
        <path id="Path_32-2" data-name="Path 32" class="cls-2" d="M35.7,82.5H34.692v1.544A3,3,0,0,1,31.7,87.037h0a3,3,0,0,1-2.993-2.993V82.5H10.632v1.544a3,3,0,0,1-2.993,2.993h0a3,3,0,0,1-2.993-2.993V82.5H3.529A3.545,3.545,0,0,0,0,86.037v26.1a3.538,3.538,0,0,0,3.529,3.529H35.692a3.538,3.538,0,0,0,3.529-3.529v-26.1A3.534,3.534,0,0,0,35.7,82.5Zm.478,29.619a.493.493,0,0,1-.493.493H3.544a.493.493,0,0,1-.493-.493V91.965a.493.493,0,0,1,.493-.493H35.685a.493.493,0,0,1,.493.493Z" transform="translate(-3581.01 276.01)"/>
      </g>
      <g class="cls-10" transform="matrix(1, 0, 0, 1, 3581.01, -352.53)">
        <rect id="Rectangle_66-2" data-name="Rectangle 66" class="cls-2" width="7.849" height="7.849" transform="translate(-3575.73 369.26)"/>
      </g>
      <g class="cls-9" transform="matrix(1, 0, 0, 1, 3581.01, -352.53)">
        <rect id="Rectangle_67-2" data-name="Rectangle 67" class="cls-2" width="7.849" height="7.849" transform="translate(-3565.22 369.26)"/>
      </g>
      <g class="cls-8" transform="matrix(1, 0, 0, 1, 3581.01, -352.53)">
        <rect id="Rectangle_68-2" data-name="Rectangle 68" class="cls-2" width="7.849" height="7.849" transform="translate(-3554.7 369.26)"/>
      </g>
      <g class="cls-7" transform="matrix(1, 0, 0, 1, 3581.01, -352.53)">
        <rect id="Rectangle_69-2" data-name="Rectangle 69" class="cls-2" width="7.849" height="7.849" transform="translate(-3575.73 378.92)"/>
      </g>
      <g class="cls-6" transform="matrix(1, 0, 0, 1, 3581.01, -352.53)">
        <rect id="Rectangle_70-2" data-name="Rectangle 70" class="cls-2" width="7.849" height="7.849" transform="translate(-3565.22 378.92)"/>
      </g>
      <g class="cls-5" transform="matrix(1, 0, 0, 1, 3581.01, -352.53)">
        <rect id="Rectangle_71-2" data-name="Rectangle 71" class="cls-2" width="7.849" height="7.849" transform="translate(-3554.7 378.92)"/>
      </g>
    </g>
  </g>
</svg>