<svg xmlns="http://www.w3.org/2000/svg" viewBox="0 0 166.91 166.91">
  <defs>
    <style>
      .cls-1{isolation:isolate;}.cls-2{fill:#9cc;}.cls-3{opacity:0.5;mix-blend-mode:multiply;}.cls-4{fill:#fff;stroke:#fff;stroke-miterlimit:10;stroke-width:3.5px;}
    </style>
  </defs>
  <g class="cls-1">
    <g id="Layer_1" data-name="Layer 1">
      <circle cx="83.46" cy="83.46" r="83.46" class="cls-2"/>
      <path d="M123.2 43.43H43.74A12.87 12.87 0 0 0 30.86 56.3v54.32a12.87 12.87 0 0 0 12.86 12.86h79.46a12.87 12.87 0 0 0 12.86-12.86v-54.3a12.86 12.86 0 0 0-12.83-12.9zm7 67.2a7 7 0 0 1-7 7H43.74a7 7 0 0 1-7-7v-54.3a7 7 0 0 1 7-7h79.46a7 7 0 0 1 7 7v54.3z" class="cls-4"/>
      <path d="M97.2 82.78l25.73-23.07a2.94 2.94 0 1 0-3.93-4.35L83.5 87.18 76.6 81v-.07a4.35 4.35 0 0 0-.5-.4L47.9 55.3a2.94 2.94 0 0 0-3.9 4.4L70 83l-25.9 24.25a3 3 0 0 0-.1 4.15 3 3 0 0 0 2.15.94 2.94 2.94 0 0 0 2-.78l26.3-24.62 7.13 6.38a2.93 2.93 0 0 0 3.92 0l7.33-6.57L119 111.58a2.95 2.95 0 0 0 4.16-.1 3 3 0 0 0-.1-4.17z" class="cls-4"/>
    </g>
  </g>
</svg>
