<svg xmlns="http://www.w3.org/2000/svg" viewBox="0 0 166.91 166.91">
  <defs>
    <style>
      .cls-1{isolation:isolate;}.cls-2{fill:#3f8786;}.cls-3{opacity:0.5;mix-blend-mode:multiply;}.cls-4{fill:#fff;stroke:#fff;stroke-miterlimit:10;stroke-width:3px;}
    </style>
  </defs>
  <g class="cls-1">
    <g id="Layer_1" data-name="Layer 1">
      <circle cx="83.46" cy="83.46" r="83.46" class="cls-2"/>
      <path d="M115.53 96.66a10.87 10.87 0 0 0-7.88-3.66 11.24 11.24 0 0 0-8 3.6L92.3 104c-.6-.33-1.2-.63-1.8-.93-.83-.42-1.62-.82-2.3-1.24A80.1 80.1 0 0 1 69 84.33a47.25 47.25 0 0 1-6.3-9.94c1.9-1.8 3.68-3.6 5.4-5.4l2-2c4.9-4.9 4.9-11.27 0-16.17l-6.36-6.37c-.72-.7-1.47-1.47-2.17-2.2-1.4-1.46-2.87-2.95-4.38-4.35a11 11 0 0 0-7.9-3.43 11.42 11.42 0 0 0-7.9 3.5l-7.95 8a17.06 17.06 0 0 0-5.07 10.8c-.56 6.8 1.45 13.15 3 17.3 3.73 10.3 9.4 19.76 17.8 29.9a109.73 109.73 0 0 0 36.54 28.6c5.36 2.55 12.52 5.56 20.52 6.07h1.47a17.57 17.57 0 0 0 13.46-5.78v-.2a53 53 0 0 1 4.1-4.2l3-3a11.63 11.63 0 0 0 3.5-8.1 11.2 11.2 0 0 0-3.6-8zm8.35 24.55c-.9 1-1.84 1.9-2.84 2.9a61.3 61.3 0 0 0-4.5 4.7 11.24 11.24 0 0 1-8.77 3.7h-1.07c-6.93-.42-13.36-3.13-18.2-5.44a103.58 103.58 0 0 1-34.4-27c-8-9.6-13.28-18.44-16.8-28-2.17-5.8-3-10.33-2.6-14.6a10.7 10.7 0 0 1 3.2-6.93l8-8A5.3 5.3 0 0 1 49.4 41a5 5 0 0 1 3.4 1.62l.07.04c1.42 1.33 2.77 2.7 4.2 4.17L59.3 49l6.36 6.37c2.47 2.47 2.47 4.76 0 7.23-.68.68-1.33 1.35-2 2-2 2-3.82 3.87-5.85 5.7l-.1.1a4.76 4.76 0 0 0-1.2 5.3l.1.2a51.1 51.1 0 0 0 7.58 12.3 85.6 85.6 0 0 0 20.7 18.9 31.84 31.84 0 0 0 2.9 1.56c.83.42 1.62.82 2.3 1.24l.3.16a5.05 5.05 0 0 0 2.3.58 5 5 0 0 0 3.5-1.64l8-8a5.28 5.28 0 0 1 3.53-1.75A4.75 4.75 0 0 1 111 101l12.85 12.85c2.4 2.44 2.4 4.9.03 7.36zM87.92 54.5a30 30 0 0 1 24.44 24.44 3.13 3.13 0 0 0 3.1 2.6 4.16 4.16 0 0 0 .54 0 3.15 3.15 0 0 0 2.6-3.63A36.3 36.3 0 0 0 89 48.3a3.16 3.16 0 0 0-3.64 2.56 3.1 3.1 0 0 0 2.56 3.64zM138.57 77a59.75 59.75 0 0 0-48.7-48.74 3.14 3.14 0 1 0-1 6.2A53.37 53.37 0 0 1 132.37 78a3.13 3.13 0 0 0 3.1 2.6 4.16 4.16 0 0 0 .55 0 3.1 3.1 0 0 0 2.57-3.6z" class="cls-4"/>
    </g>
  </g>
</svg>
