<?xml version="1.0" encoding="UTF-8"?>
<!-- Generator: Adobe Illustrator 19.1.0, SVG Export Plug-In . SVG Version: 6.00 Build 0)  -->
<svg version="1.1" id="Layer_1" xmlns="http://www.w3.org/2000/svg" xmlns:xlink="http://www.w3.org/1999/xlink" x="0px" y="0px" viewBox="0 0 58.5 58.9" style="enable-background:new 0 0 58.5 58.9;" xml:space="preserve">
<style type="text/css">
	.st0{fill:none;stroke:#a7d2d0;stroke-width:4;stroke-miterlimit:10;}
	.st1{fill:#336667;stroke:#336667;stroke-width:4;stroke-miterlimit:10;}
	.st2{fill:#99CCCC;}
</style>
<path class="st0" d="M54.7,18.5c-1.4-3.6-3.5-6.5-6.1-8.9C45.5,6.7,42,4.7,38.2,3.4C33.9,2,29.5,1.7,25.1,2.3  C20.1,3,15.4,5,11.2,8.4c-2.7,2.2-5,5-6.7,8.4c-2.2,4.4-3,9.2-2.3,14.3c0.5,3.3,1.6,6.3,3.3,9.1c1.4,2.2,3,4.1,4.8,5.7  c0.8,0.7,1.1,1.8,0.7,2.9c-0.6,1.6-1.2,3.2-1.9,4.8c-0.5,1.1-1.1,2.2-1.6,3.3c0.1,0,0.2,0,0.3,0c1.9-0.4,3.7-1,5.4-1.9  c1.5-0.8,2.9-1.7,4.3-2.6c0.5-0.3,1-0.5,1.6-0.4c0.7,0.1,1.4,0.3,2.1,0.4c2.7,0.3,5.3,0.7,8,0.8c3,0.1,6-0.4,8.9-1.4  c4.8-1.6,9.1-4.3,12.6-8.5c2.6-3.2,4.5-6.9,5.3-11.3C56.9,27.3,56.4,22.8,54.7,18.5z" fill="currentcolor" stroke="#a8cbcb" stroke-width="currentcolor"/>
</svg>