<svg xmlns="http://www.w3.org/2000/svg" data-name="Layer 1" viewBox="0 0 100 125" x="0px" y="0px"><g data-name="Group"><path fill="#fff" data-name="Compound Path" d="M80.4,85.5V62.6h4.4a9,9,0,0,0,9-9V46.4a9,9,0,0,0-9-9H80.4V14.5h-2V21L20.5,36.4H13.2a7,7,0,0,0-7,7V56.6a7,7,0,0,0,7,7h7.3l3.2.8v9.4a7,7,0,0,0,7,7h18a7,7,0,0,0,7-7v-.9l22.7,6v6.5Zm4.4-46.1a7,7,0,0,1,7,7v7.2a7,7,0,0,1-7,7H80.4V39.4ZM8.2,56.6V43.4a5,5,0,0,1,5-5h6.4V61.6H13.2A5,5,0,0,1,8.2,56.6ZM53.6,73.8a5,5,0,0,1-5,5h-18a5,5,0,0,1-5-5V65l28,7.4Zm-32-12V38.2L78.4,23.1V76.9Z"/></g></svg>